<?xml version="1.0" standalone="no"?>
<!DOCTYPE svg PUBLIC "-//W3C//DTD SVG 1.1//EN" "http://www.w3.org/Graphics/SVG/1.1/DTD/svg11.dtd" >
<svg xmlns="http://www.w3.org/2000/svg" xmlns:xlink="http://www.w3.org/1999/xlink" version="1.1">
<metadata></metadata>
<defs>
<font id="kilogramregular" horiz-adv-x="1024" >
<font-face units-per-em="2048" ascent="1638" descent="-410" />
<missing-glyph horiz-adv-x="681" />
<glyph horiz-adv-x="0" />
<glyph horiz-adv-x="682" />
<glyph unicode=" "  horiz-adv-x="681" />
<glyph unicode="&#x09;" horiz-adv-x="681" />
<glyph unicode="&#xa0;" horiz-adv-x="681" />
<glyph unicode="!" horiz-adv-x="505" d="M446 199q0 -92 -65.5 -157t-157.5 -65t-157.5 65t-65.5 157t65.5 157.5t157.5 65.5t157.5 -65.5t65.5 -157.5zM2 1403h442l-28 -924h-387z" />
<glyph unicode="&#x22;" horiz-adv-x="712" d="M174 1507l213 -75l-174 -316l-213 78zM481 1507l213 -75l-174 -316l-213 78z" />
<glyph unicode="#" />
<glyph unicode="$" horiz-adv-x="911" d="M848 1159l-256 -256q-42 42 -96 39q-56 0 -95 -39q-36 -36 -39 -80v-18q0 -55 39 -94q35 -27 62 -62q82 -82 92 -200v-23q0 -130 -94 -227v-197h-195v107h-28q-128 0 -226 92l195 192l-21 21l-16 16l-25 27q-72 70 -108.5 161.5t-36.5 188.5v22q10 198 145 330 q54 54 121 90v174h195v-120q7 0 21 1t18 1q205 -3 348 -146z" />
<glyph unicode="%" />
<glyph unicode="&#x26;" horiz-adv-x="1193" d="M1128 389v-387h-194q-120 0 -221 66q-118 -78 -258 -78q-186 0 -322 133q-133 133 -133 319q0 198 139 334q-41 87 -41 185q0 182 129 311q131 131 312 131q126 0 231.5 -66t163.5 -176l-346 -176q-13 29 -43 33h-8q-11 0 -13 -2q-12 -3 -24 -15q-17 -17 -17 -40 q0 -19 12.5 -35.5t32.5 -20.5h576v-387h-195v-104q0 -8 8.5 -16.5t16.5 -8.5h194zM522 442v76h-67q-28 0 -48 -17.5t-20 -45.5q0 -41 21 -62q25 -18 47 -18q27 0 47 18.5t20 48.5z" />
<glyph unicode="'" horiz-adv-x="425" d="M174 1507l213 -75l-174 -316l-213 78z" />
<glyph unicode="(" horiz-adv-x="589" d="M0 729q0 281 139.5 510t409.5 383l41 -72q-244 -138 -371 -350.5t-127 -470.5t127 -470.5t371 -348.5l-41 -74q-270 154 -409.5 383t-139.5 510z" />
<glyph unicode=")" horiz-adv-x="589" d="M528 729q0 -282 -139 -510.5t-409 -382.5l-41 74q244 136 370.5 348t126.5 471t-126.5 471t-370.5 350l41 72q270 -154 409 -382.5t139 -510.5z" />
<glyph unicode="*" horiz-adv-x="788" d="M727 1251v-243l-252 57l176 -188l-211 -123l-75 245l-76 -247l-213 122l176 187l-252 -55v243l252 -59l-178 192l213 123l73 -250l76 250l213 -123l-178 -190z" />
<glyph unicode="+" />
<glyph unicode="," horiz-adv-x="501" d="M367 369q75 -59 75 -164q0 -39 -12 -80q-30 -107 -123 -197q-87 -90 -192 -118l-25 47l16 18q23 33 23 64t-39 81q-2 0 -12 11q-68 56 -78 151v17q0 80 53 145q66 78 170 78q17 0 37 -4q62 -9 107 -49z" />
<glyph unicode="-" horiz-adv-x="495" d="M434 870v-297h-434v297h434z" />
<glyph unicode="." horiz-adv-x="507" d="M446 199q0 -92 -65.5 -157t-157.5 -65t-157.5 65t-65.5 157t65.5 157.5t157.5 65.5t157.5 -65.5t65.5 -157.5z" />
<glyph unicode="/" horiz-adv-x="647" d="M580 1645h96l-676 -2007h-96z" />
<glyph unicode="0" horiz-adv-x="1560" d="M1499 702q0 -309 -221 -530q-219 -219 -528 -219t-531 219q-219 222 -219 530q0 310 219 529q221 221 531 221t528 -221q221 -218 221 -529zM1065 702q0 131 -94 222q-92 92 -221 92q-132 0 -224 -92t-92 -222q0 -131 92 -223t224 -92q129 0 221 92q94 91 94 223z" />
<glyph unicode="1" horiz-adv-x="694" d="M633 1401v-1401h-434v967h-199v434h633z" />
<glyph unicode="2" horiz-adv-x="1204" d="M1143 434v-434h-1063q283 424 563 846q8 11 8 26q2 8 2 21q0 45 -31.5 76.5t-78.5 31.5q-44 0 -76.5 -32t-32.5 -76h-434q0 226 160 383q160 160 383 160q236 0 391 -168q156 -166 153 -381q0 -82 -18 -142q-29 -102 -131 -243l-47 -68h252z" />
<glyph unicode="3" horiz-adv-x="864" d="M803 461q0 -188 -135 -326q-135 -135 -328 -135h-164h-166v434h330q13 0 21 9t6 20q0 26 -27 26h-231l-3 437h220q16 0 16 18q0 21 -18 21h-324v434h162h162q188 0 321 -133t133 -320q0 -121 -59 -221q84 -116 84 -264z" />
<glyph unicode="4" horiz-adv-x="1257" d="M1217 649v-434h-41v-215h-437v215h-766l492 1059l274 -125v254h437v-754h41zM653 649h86v187z" />
<glyph unicode="5" horiz-adv-x="921" d="M860 1403v-434h-217h-209v-47q187 -52 303 -207q119 -155 119 -350q0 -253 -188 -426t-439 -152q-14 0 -47 8q-122 17 -215 35l72 426l106 -18l107 -17q8 -2 24 -2q61 0 103.5 44.5t42.5 103.5q0 61 -43 98q-43 43 -103 43h-276v895h860z" />
<glyph unicode="6" horiz-adv-x="1124" d="M1063 514q0 -219 -156 -375q-155 -155 -375 -155q-221 0 -376 155q-156 156 -156 375q0 148 74 268q29 50 86 148q90 157 190 325q16 28 47 81t39 67h502l-225 -389q152 -56 250 -193q100 -132 100 -307zM600 582q-15 15 -45 26q-4 0 -11.5 1t-11.5 1q-52 0 -81 -43 l-2 -4q-15 -26 -15 -49q0 -38 30 -67t68 -29q41 0 68 30t27 68q0 10 -2 16q-3 28 -25 50z" />
<glyph unicode="7" horiz-adv-x="1099" d="M0 1403h1100l-694 -1493l-394 182l408 877h-420v434z" />
<glyph unicode="8" horiz-adv-x="1124" d="M1063 514q0 -219 -156 -375q-155 -155 -375 -155q-221 0 -376 155q-156 156 -156 375q0 105 38.5 200t106.5 165q-22 64 -22 131q0 167 121 288t288 121q166 0 287 -121t121 -288q0 -67 -22 -131q68 -70 106.5 -165t38.5 -200zM600 582q-22 28 -70 28q-38 0 -67 -27.5 t-29 -68.5q0 -38 30 -67t68 -29q41 0 68 30t27 68q0 10 -2 16q-3 28 -25 50zM580 1059q-20 20 -50 20q-27 0 -47 -19.5t-20 -49.5q0 -27 20.5 -48.5t48.5 -21.5q29 0 48.5 22t19.5 50q0 27 -20 47z" />
<glyph unicode="9" horiz-adv-x="1124" d="M1063 918q0 -145 -74 -271q-29 -49 -86 -147q-76 -128 -188 -324q-26 -45 -97 -164t-100 -170l-397 181l231 393q-153 59 -254 192q-98 137 -98 310q0 218 156 374t376 156q219 0 375 -156t156 -374zM629 918q0 40 -29 68t-68 28q-43 0 -70.5 -30.5t-25.5 -70.5 q0 -10 2 -16q3 -27 25 -49q33 -23 45 -25q8 -2 22 -2q55 0 82 41l2 4q15 26 15 52z" />
<glyph unicode=":" horiz-adv-x="507" d="M446 199q0 -92 -65.5 -157t-157.5 -65t-157.5 65t-65.5 157t65.5 157.5t157.5 65.5t157.5 -65.5t65.5 -157.5zM446 711q0 -92 -65.5 -158t-157.5 -66t-157.5 66t-65.5 158t65.5 157.5t157.5 65.5t157.5 -65.5t65.5 -157.5z" />
<glyph unicode=";" horiz-adv-x="507" d="M381 369q76 -59 76 -164q0 -36 -13 -80q-30 -108 -122 -197q-87 -90 -193 -118l-25 47l17 18q22 32 22 64q0 31 -39 81q-2 0 -12 11q-68 56 -78 151v17q0 79 54 145q66 78 170 78q16 0 36 -4q62 -9 107 -49zM446 711q0 -92 -65.5 -158t-157.5 -66t-157.5 66t-65.5 158 t65.5 157.5t157.5 65.5t157.5 -65.5t65.5 -157.5z" />
<glyph unicode="&#x3c;" horiz-adv-x="829" d="M768 414v-187l-768 445v116l768 445v-189l-512 -315z" />
<glyph unicode="=" horiz-adv-x="890" d="M829 682v-156h-829v156h829zM829 989v-155h-829v155h829z" />
<glyph unicode="&#x3e;" horiz-adv-x="829" d="M768 788v-116l-768 -445v187l514 315l-514 315v189z" />
<glyph unicode="?" horiz-adv-x="927" d="M791 1210q73 -110 73 -241q0 -166 -106 -287q-123 -143 -160 -182l-16 -17q-13 -17 -13 -30v-37v-37h-77q92 -69 92 -180q0 -92 -66 -157t-158 -65t-157.5 65t-65.5 157q0 113 90 180h-92v110q0 52 11 96t34.5 83t42 62.5t51.5 60.5q85 95 103 116l51 60l-414 -113 q-14 55 -14 111q0 107 50 203t140 157q107 74 242 74q107 0 203 -49.5t156 -139.5zM434 965v2v1l-4 -1v-2h2q2 2 2 0z" />
<glyph unicode="@" horiz-adv-x="1560" d="M0 694q0 153 58.5 292t159 240.5t242 161.5t300.5 60q155 0 293.5 -55t235.5 -146.5t153.5 -213.5t56.5 -253q0 -112 -30.5 -201.5t-82.5 -144t-116.5 -83.5t-136.5 -29q-188 0 -263 131q-110 -127 -252 -127q-136 0 -225.5 95t-89.5 249q0 182 113 313t266 131t229 -127 l21 105l266 -41l-78 -443q-8 -50 -8 -73q0 -44 30.5 -73.5t82.5 -29.5q87 0 143.5 92t56.5 256q0 118 -49.5 227t-135.5 191t-211.5 131t-268.5 49q-195 0 -353 -91.5t-245.5 -248t-87.5 -344.5q0 -189 86.5 -344t245.5 -245.5t360 -90.5q122 0 221 28t197 87l35 -55 q-208 -127 -453 -127q-163 0 -306 59t-243.5 159t-158.5 238t-58 291zM868 754q0 59 -35 94t-90 35q-70 0 -117.5 -55.5t-47.5 -137.5q0 -63 34 -98t90 -35q69 0 117.5 57t48.5 140z" />
<glyph unicode="A" horiz-adv-x="1781" d="M825 557h131l-65 115zM1782 0h-502l-74 121h-633l-69 -121h-504l891 1544z" />
<glyph unicode="B" horiz-adv-x="1333" d="M1247 834q45 -105 45 -232v-2v-2q0 -246 -176 -422t-424 -176h-692v1405h782q84 0 149 -18.5t103.5 -47t63 -67.5t33 -75.5t8.5 -76.5q0 -55 -27 -104q38 -30 74.5 -80t60.5 -102zM809 485q49 49 49 117q0 67 -49 119q-49 49 -117 49h-256v-334h256q68 0 117 49z" />
<glyph unicode="C" horiz-adv-x="1329" d="M979 481l307 -307l-6 -6q-219 -219 -530 -219q-313 0 -529 219q-221 221 -221 530q0 310 221 531q216 219 529 219q311 0 530 -219l6 -6l-309 -308q-1 1 -2 2.5t-2 2.5q-92 92 -223 92q-132 0 -224 -92t-92 -222q0 -131 92 -223t224 -92q131 0 223 92z" />
<glyph unicode="D" horiz-adv-x="1333" d="M1272 700q0 -288 -207 -495q-205 -205 -494 -205h-571v1401h571q287 0 494 -207t207 -494zM760 512q78 78 78 186q0 102 -74 185q-70 82 -193 82h-137v-531h43q36 -2 75 0t73.5 7.5t70 23.5t64.5 47z" />
<glyph unicode="E" horiz-adv-x="1091" d="M438 481v-47h592v-434h-1030v1401h1030v-436h-592v-47h592v-437h-592z" />
<glyph unicode="F" horiz-adv-x="1091" d="M1030 922v-439h-592v-483h-438v1405h1030v-436h-592v-47h592z" />
<glyph unicode="G" horiz-adv-x="1323" d="M1354 1085l-377 -217q-38 68 -105.5 107t-146.5 39q-118 0 -205 -84q-86 -83 -86 -205q0 -119 86 -205t205 -86h47h47v314h434v-748h-528q-299 0 -512 213t-213 512t213 512t512 213q194 0 362 -98q175 -102 267 -267z" />
<glyph unicode="H" horiz-adv-x="1228" d="M1167 1403v-1403h-436v483h-295v-483h-436v1403h436v-483h295v483h436z" />
<glyph unicode="I" horiz-adv-x="495" d="M434 1403v-1403h-434v1403h434z" />
<glyph unicode="J" horiz-adv-x="780" d="M719 1403v-799q0 -299 -211 -510q-210 -213 -508 -213v434q120 0 201 84q82 85 82 205v799h436z" />
<glyph unicode="K" horiz-adv-x="1288" d="M821 711l430 -432l-307 -308l-510 510v-481h-434v1403h434v-465l510 510l307 -307z" />
<glyph unicode="L" horiz-adv-x="794" d="M733 434v-434h-733v1401h434v-967h299z" />
<glyph unicode="M" horiz-adv-x="1570" d="M1509 1489v-1489h-434v397l-325 -436l-316 432v-393h-434v1493l752 -862z" />
<glyph unicode="N" horiz-adv-x="1474" d="M1411 1403v-1573l-975 772v-602h-436v1499l975 -770v674h436z" />
<glyph unicode="O" horiz-adv-x="1540" d="M1499 702q0 -309 -221 -530q-219 -219 -528 -219t-531 219q-219 222 -219 530q0 310 219 529q221 221 531 221t528 -221q221 -218 221 -529zM1065 702q0 131 -94 222q-92 92 -221 92q-132 0 -224 -92t-92 -222q0 -131 92 -223t224 -92q129 0 221 92q94 91 94 223z" />
<glyph unicode="P" horiz-adv-x="1333" d="M1292 801q0 -248 -176 -424t-426 -176h-254v-201h-436v1403h690q250 0 426 -176t176 -426zM856 801q0 69 -48.5 117.5t-117.5 48.5h-254v-332h254q69 0 117.5 49t48.5 117z" />
<glyph unicode="Q" horiz-adv-x="1564" d="M1499 702q0 -189 -90 -356q88 -154 88 -346h-289q0 50 -12 100q-200 -147 -446 -147q-309 0 -531 219q-219 222 -219 530q0 310 219 529q221 221 531 221t528 -221q221 -218 221 -529zM1065 702q0 131 -94 222q-92 92 -221 92q-132 0 -224 -92t-92 -222q0 -131 92 -223 t224 -92q77 0 139 33q-49 14 -115 14v291q149 0 287 -61q4 28 4 38z" />
<glyph unicode="R" horiz-adv-x="1351" d="M1094 -55q-7 0 -21.5 1t-21.5 1q-13 0 -41 4q-28 0 -86 8q-22 3 -82 21q-106 23 -213 81q-101 57 -191 140h-4v-201h-434v1407l690 -4q247 0 426 -176q176 -176 176 -426q0 -120 -47 -232q-44 -102 -127 -188q64 0 148 20.5t127 40.5zM807 920q-47 47 -117 47h-256v-332 h256q71 0 117 49q49 49 49 117q0 70 -49 119z" />
<glyph unicode="S" horiz-adv-x="1038" d="M997 555q0 -96 -26 -178q-39 -134 -150 -248q-178 -178 -428 -178q-248 0 -426 178l309 309q49 -49 117 -49q70 0 119 49q47 50 47 117q0 23 -2 40.5t-14.5 46.5t-34.5 50t-66.5 42t-105.5 32q-77 13 -135 48.5t-88.5 81t-45 88t-14.5 79.5q0 141 99.5 240.5t240.5 99.5 v0h383v-383q27 -20 43 -39q178 -178 178 -426z" />
<glyph unicode="T" horiz-adv-x="1105" d="M1044 1403v-434h-305v-969h-434v969h-305v434h1044z" />
<glyph unicode="U" horiz-adv-x="1210" d="M1149 1403v-856q0 -236 -168 -404q-169 -166 -406 -166q-116 0 -221 43.5t-184 122.5q-80 80 -125 184t-45 220v856h434v-856q0 -55 41 -96q44 -41 100 -41q57 0 97.5 40t40.5 97v856h436z" />
<glyph unicode="V" horiz-adv-x="1716" d="M1212 1403h504l-858 -1489l-858 1489h502l356 -619z" />
<glyph unicode="W" horiz-adv-x="2338" d="M1843 1403h496l-821 -1481l-349 645l-350 -645l-819 1481h496l319 -580l354 652l353 -652z" />
<glyph unicode="X" horiz-adv-x="1249" d="M848 717l360 -719h-485l-119 238l-119 -238h-485l360 719l-344 684h486l102 -201l103 201h485z" />
<glyph unicode="Y" horiz-adv-x="1433" d="M932 1403h502l-500 -868v-535h-434v535l-500 868h502l215 -373z" />
<glyph unicode="Z" horiz-adv-x="1337" d="M1313 1401l-557 -965h501v-436h-1257l557 965h-502v436h1258z" />
<glyph unicode="[" />
<glyph unicode="\" horiz-adv-x="702" d="M2 1645h92l676 -2007h-92z" />
<glyph unicode="]" />
<glyph unicode="^" />
<glyph unicode="_" horiz-adv-x="1183" d="M1237 -51v-86h-1245v86h1245z" />
<glyph unicode="`" horiz-adv-x="602" d="M139 1657l396 -314l-25 -79l-449 141z" />
<glyph unicode="a" horiz-adv-x="1781" d="M1782 0h-1782l891 1546zM754 436h272l-135 236z" />
<glyph unicode="b" horiz-adv-x="1204" d="M1163 467q0 -193 -137 -330t-330 -137h-696v1401h678q184 0 317 -133q63 -63 98 -145t35 -173q0 -118 -53 -213q88 -122 88 -270zM727 467q0 12 -9.5 21.5t-21.5 9.5h-118h-99v436h199q16 0 16 16q0 7 -4 11t-12 4h-242v-531h260q12 0 21.5 10t9.5 23z" />
<glyph unicode="c" horiz-adv-x="987" d="M823 395l103 -422q-114 -20 -176 -20q-309 0 -531 219q-219 222 -219 530q0 310 219 529q221 221 531 221q86 0 176 -22l-103 -422q-33 8 -71 8q-126 0 -222 -90t-96 -224t96 -227q97 -91 222 -88q22 0 36 2q5 0 35 6z" />
<glyph unicode="d" horiz-adv-x="1333" d="M1272 700q0 -288 -207 -495q-205 -205 -494 -205h-571v1401h571q287 0 494 -207t207 -494zM760 512q78 78 78 186q0 102 -74 185q-70 82 -193 82h-137v-531h43q36 -2 75 0t73.5 7.5t70 23.5t64.5 47z" />
<glyph unicode="e" horiz-adv-x="1095" d="M1034 918v-437h-598v-47h432v-434h-868v1401h868v-436h-432v-47h598z" />
<glyph unicode="f" horiz-adv-x="1095" d="M1034 920v-437h-598v-483h-436v1403h868v-436h-432v-47h598z" />
<glyph unicode="g" horiz-adv-x="1333" d="M1384 1096l-323 -340q-15 105 -107 184q-89 76 -204 76q-132 0 -224 -92t-92 -224q0 -85 43.5 -157t114.5 -115v256h561v-434h-125v-273l-192 -20q-8 0 -20 -1t-15 -1q-1 0 -4 -1t-4 -1h-43q-309 0 -531 219q-219 219 -219 528q0 312 219 531q222 219 531 219 q275 0 487 -180q90 -77 147 -174z" />
<glyph unicode="h" horiz-adv-x="1394" d="M1333 920v-437h-166v-483h-436v483h-295v-483h-436v1405h436v-485h295v485h436v-485h166z" />
<glyph unicode="i" horiz-adv-x="495" d="M434 1403v-1403h-434v1403h434z" />
<glyph unicode="j" horiz-adv-x="712" d="M442 -303q-213 -213 -510 -213v436q122 0 203 84q80 86 80 205v1196h436v-399v-797q0 -297 -209 -512z" />
<glyph unicode="k" horiz-adv-x="1554" d="M1335 446l219 -374q-90 -52 -178 -78q-82 -28 -182 -41q-36 -4 -53 -4q-18 -2 -54 -2q-40 0 -122 8q-51 7 -123 25q-128 35 -215 83q-105 57 -193 142v-205h-434v1405h434v-465l512 510l307 -307l-563 -563q79 -102 194.5 -152.5t233.5 -44t217 62.5z" />
<glyph unicode="l" horiz-adv-x="794" d="M733 434v-434h-733v1401h434v-967h299z" />
<glyph unicode="m" horiz-adv-x="2318" d="M1507 1460l811 -1460h-495l-312 559q-13 -25 -176 -326l-176 -321l-354 647l-309 -559h-496l809 1460l350 -643z" />
<glyph unicode="n" horiz-adv-x="1474" d="M1411 1403v-1573l-975 772v-602h-436v1499l975 -770v674h436z" />
<glyph unicode="o" horiz-adv-x="1378" d="M1317 782q0 -270 -195 -465q-192 -192 -465 -192q-272 0 -464 192q-193 193 -193 465t193 465t464 193q272 0 465 -193q195 -195 195 -465zM881 782q0 92 -66 158t-158 66t-156.5 -65.5t-64.5 -158.5q0 -92 64.5 -157.5t156.5 -65.5t158 65.5t66 157.5z" />
<glyph unicode="p" horiz-adv-x="1353" d="M1292 801q0 -248 -176 -424t-426 -176h-254v-201h-436v1403h690q250 0 426 -176t176 -426zM856 801q0 69 -48.5 117.5t-117.5 48.5h-254v-332h254q69 0 117.5 49t48.5 117z" />
<glyph unicode="q" horiz-adv-x="2136" d="M1767 139l369 -155q-84 -194 -247.5 -299t-360.5 -105q-69 0 -156 17q-74 15 -155 51q-109 48 -123 57t-123 57q-78 35 -158 35q-78 0 -141 -40t-97 -119l-368 151q71 160 184 254q-173 93 -282 270t-109 387q0 312 219 531q222 219 531 219q311 0 530 -219t219 -531 q0 -182 -81.5 -339.5t-223.5 -262.5q52 -24 59 -28q49 -27 123 -60q67 -30 152 -30q173 0 239 159zM1065 700q0 132 -92 224t-223 92q-130 0 -222 -92t-92 -224q0 -129 92 -221t222 -92q131 0 223 92t92 221z" />
<glyph unicode="r" horiz-adv-x="1552" d="M1333 446l219 -374q-170 -97 -360 -119q-35 -6 -107 -6q-128 0 -243 33l-2 -3q-230 61 -402 224h-4v-201h-434v1403h690q248 0 424 -176t176 -426q0 -120 -45.5 -228t-126.5 -192q118 10 215 65zM856 801q0 69 -49 117.5t-117 48.5h-256v-332h256q68 0 117 49.5t49 116.5 z" />
<glyph unicode="s" horiz-adv-x="937" d="M322 1403h616l-387 -387q-23 -23 -33 -66v-14q0 -49 33 -82l70 -70q151 -151 161 -364v-23q0 -109 -40.5 -210t-120.5 -179l-7 -6h-614l313 313q33 33 33 82v15q-3 38 -33 65l-67 70q-80 78 -121 179t-41 210v25q5 100 45.5 195t114.5 169z" />
<glyph unicode="t" horiz-adv-x="1105" d="M1044 1403v-434h-305v-969h-434v969h-305v434h1044z" />
<glyph unicode="u" horiz-adv-x="1210" d="M1149 1403v-709q0 -237 -168 -405t-406 -168q-237 0 -405 168q-170 170 -170 405v709h434v-709q0 -64 43 -99.5t101 -35.5q56 0 95.5 35t39.5 100v709h436z" />
<glyph unicode="v" horiz-adv-x="1716" d="M1212 1403h504l-858 -1489l-858 1489h502l356 -619z" />
<glyph unicode="w" horiz-adv-x="1570" d="M0 -90v1489h434v-398l326 437l315 -432v393h434v-1493l-751 862z" />
<glyph unicode="x" horiz-adv-x="1579" d="M1059 719l520 -719h-537l-254 350l-251 -350h-537l520 719l-495 684h536l227 -313l230 313h536z" />
<glyph unicode="y" horiz-adv-x="1433" d="M932 1403h502l-500 -868v-535h-434v535l-500 868h502l215 -373z" />
<glyph unicode="z" horiz-adv-x="1310" d="M55 1401h1256l-557 -967h290l-208 -434h-836l557 965h-502v436z" />
<glyph unicode="{" />
<glyph unicode="|" horiz-adv-x="241" d="M145 1645v-2055h-92v2055h92z" />
<glyph unicode="}" />
<glyph unicode="~" />
<glyph unicode="&#xa1;" horiz-adv-x="505" d="M418 516l26 -924h-442l29 924h387zM446 797q0 -92 -65.5 -158t-157.5 -66t-157.5 66t-65.5 158t65.5 157.5t157.5 65.5t157.5 -65.5t65.5 -157.5z" />
<glyph unicode="&#xa2;" horiz-adv-x="765" d="M621 514l84 -352q-58 -13 -91 -15q-14 -2 -45 -2q-22 0 -32 2q-5 0 -16.5 1.5t-16.5 1.5v-150h-193v209q-83 44 -143 104q-83 83 -125.5 188t-42.5 218q0 110 43.5 215t124.5 186q62 62 143 105v178h193v-121q46 4 67 4q65 0 134 -16l-84 -350q-16 6 -50 6 q-79 0 -145 -60q-64 -58 -64 -149q0 -86 63 -147.5t146 -61.5q2 0 50 6z" />
<glyph unicode="&#xa3;" horiz-adv-x="1245" d="M866 428l316 -174q-48 -90 -126 -151.5t-173 -88.5q-77 -18 -142 -18q-137 3 -239 61q-22 17 -66 17h-10q-33 -2 -63.5 -21t-47.5 -49l-317 174q60 111 172 182v125v125h-164v97h164v239q0 193 135 328q137 137 330 137q91 0 176.5 -35.5t151.5 -101.5l-258 -254 q-23 29 -72 29q-40 0 -70.5 -29t-30.5 -74v-239h201v-97h-201v-182q78 -16 146 -55q31 -13 45 -15q8 -2 22 -2h11q76 11 110 72z" />
<glyph unicode="&#xa5;" horiz-adv-x="1355" d="M975 1479l315 -181l-311 -542h149v-97h-206l-43 -73h249v-97h-303v-489h-362v489h-301v97h248l-43 73h-205v97h149l-311 542l313 181l332 -574z" />
<glyph unicode="&#xa6;" />
<glyph unicode="&#xa7;" />
<glyph unicode="&#xa8;" horiz-adv-x="602" d="M285 1505q0 -39 -28 -67.5t-69 -28.5q-38 0 -67 29t-29 67t29 67.5t67 29.5q41 0 69 -29t28 -68zM535 1505q0 -38 -28.5 -67t-66.5 -29t-67 29t-29 67t29 67.5t67 29.5t66.5 -29.5t28.5 -67.5z" />
<glyph unicode="&#xa9;" horiz-adv-x="1554" d="M0 692v4q0 201 99 374t271.5 275.5t377.5 102.5q154 0 293 -60t237.5 -160.5t156.5 -238t58 -287.5v-6q0 -150 -58.5 -288t-158.5 -239t-239.5 -161.5t-293.5 -60.5t-292 59.5t-236.5 160t-156.5 238t-58 287.5zM1407 696v6q0 181 -85.5 333t-237 241.5t-336.5 89.5 q-139 0 -262 -53.5t-210.5 -143.5t-138.5 -213.5t-51 -259.5v-4q0 -135 50.5 -257t137 -211.5t209 -142t260.5 -52.5q186 0 339 90.5t239 243t86 333.5zM342 705v4q0 111 52.5 204.5t149.5 149t218 55.5q116 0 196 -42.5t140 -121.5l-168 -131q-75 92 -174 92 q-81 0 -133 -59t-52 -145v-4q0 -89 52 -148t133 -59q58 0 98 23.5t80 70.5l170 -119q-65 -86 -146 -132t-202 -46q-179 0 -296.5 117.5t-117.5 290.5z" />
<glyph unicode="&#xaa;" horiz-adv-x="1021" d="M487 1423l447 -772h-252l-35 62h-317l-35 -62h-252l190 330q37 62 46 141q2 10 2 31q-4 131 -117 152q-1 0 -5 1t-5 1h-11q-28 0 -49 -15q-25 -18 -28 -55v-10q0 -23 12 -40t35 -18q11 0 17.5 8.5t4.5 16.5q0 6 -2 8q0 4 -4 8q-11 14 -8 23q0 12 9.5 20.5t21.5 8.5 q11 0 24 -13q21 -27 21 -57q0 -34 -24.5 -58.5t-63.5 -23.5q-49 4 -77 39t-28 82v14q11 62 53 96q20 18 62 29q5 0 15.5 1t15.5 1q33 0 49 -6q130 -34 153 -180zM455 930h65l-33 57z" />
<glyph unicode="&#xab;" horiz-adv-x="747" d="M354 492v-209l-354 362l354 348v-207l-147 -145zM682 492v-209l-352 362l352 348v-207l-147 -145z" />
<glyph unicode="&#xac;" />
<glyph unicode="&#xad;" />
<glyph unicode="&#xae;" horiz-adv-x="1554" d="M0 694v4q0 201 99 374t271.5 275.5t377.5 102.5q154 0 292 -59.5t236.5 -160t156.5 -238t58 -287.5v-7q0 -200 -99 -372.5t-271.5 -274.5t-377.5 -102q-154 0 -292 59.5t-236.5 160t-156.5 238t-58 287.5zM1405 698v7q0 135 -50.5 257t-137 211.5t-209 142t-260.5 52.5 q-139 0 -262 -53.5t-210.5 -143.5t-138.5 -213.5t-51 -259.5v-4q0 -135 50.5 -257t137 -211.5t209 -142t260.5 -52.5q139 0 262.5 53t210.5 143t138 213t51 258zM418 1118h368q181 0 269 -88q67 -70 67 -182v-4q0 -88 -42.5 -150t-118.5 -94l188 -276h-252l-162 241h-4h-92 v-241h-221v794zM782 737q57 0 89 24.5t32 67.5v5q0 46 -33 70t-90 24h-141v-191h143z" />
<glyph unicode="&#xaf;" horiz-adv-x="681" />
<glyph unicode="&#xb0;" />
<glyph unicode="&#xb1;" />
<glyph unicode="&#xb2;" horiz-adv-x="628" d="M600 913v-217h-530q80 118 280 424q4 4 4 13q2 2 2 10q0 23 -16 39t-39 16t-39 -16t-16 -39h-217q0 112 80 192t192 80q117 0 195 -84q77 -83 77 -190q0 -5 -1 -17.5t-1 -17.5q-1 -7 -4 -18.5t-4 -18.5q-13 -39 -65 -125q-5 -5 -12.5 -16t-10.5 -15h125z" />
<glyph unicode="&#xb3;" horiz-adv-x="442" d="M424 928q0 -93 -68 -164q-68 -68 -163 -68h-166v217h166q14 0 14 17q-4 12 -14 12h-117v217h108q9 0 9 10v5q-6 6 -9 6h-161v217h161q94 0 161 -67t67 -161q0 -66 -31 -110q43 -56 43 -131z" />
<glyph unicode="&#xb4;" horiz-adv-x="602" d="M483 1657l78 -252l-448 -141l-25 79z" />
<glyph unicode="&#xb5;" />
<glyph unicode="&#xb6;" />
<glyph unicode="&#xb7;" horiz-adv-x="681" />
<glyph unicode="&#xb8;" horiz-adv-x="602" d="M483 -197v-2q0 -61 -77 -98t-193 -37q-17 0 -63 4l36 76q6 2 13 0h10q43 0 71.5 17t28.5 42q-6 27 -21.5 39t-45.5 19q-9 4 -32 10.5t-36 11.5l70 176l100 -30l-39 -97q80 -11 129 -46t49 -85z" />
<glyph unicode="&#xb9;" horiz-adv-x="348" d="M332 1397v-701h-217v484h-99v217h316z" />
<glyph unicode="&#xba;" horiz-adv-x="825" d="M748 1036q0 -155 -111 -266t-264 -111q-156 0 -264 111q-109 112 -109 266q0 152 109 264q108 111 264 111q153 0 264 -111t111 -264zM530 1036q0 66 -45.5 111t-111.5 45t-112 -45t-46 -111t46 -111.5t112 -45.5t111.5 45.5t45.5 111.5z" />
<glyph unicode="&#xbb;" horiz-adv-x="749" d="M0 993l356 -348l-356 -358v205l147 149l-147 145v207zM328 993l356 -348l-356 -358v205l147 149l-147 145v207z" />
<glyph unicode="&#xbc;" />
<glyph unicode="&#xbd;" />
<glyph unicode="&#xbe;" />
<glyph unicode="&#xbf;" horiz-adv-x="927" d="M436 20l414 113q14 -49 14 -110q0 -106 -50 -202t-140 -157q-107 -74 -242 -74q-106 0 -202 49t-156 140q-74 112 -74 239q0 159 106 287l160 182l17 17q12 16 12 31v36v37h78q-92 69 -92 180q0 92 65.5 158t157.5 66t157.5 -66t65.5 -158q0 -113 -90 -180h92v-110 q0 -52 -10.5 -95t-33.5 -81.5t-41.5 -62t-53.5 -62.5q-70 -78 -103 -117zM434 20v3h-2h-2v-3q0 -4 4 0z" />
<glyph unicode="&#xc0;" horiz-adv-x="1847" d="M825 557h133l-65 115zM674 1952l395 -314l-25 -79l-448 141zM891 1544l891 -1544h-502l-74 121h-633l-69 -121h-504z" />
<glyph unicode="&#xc1;" horiz-adv-x="1785" d="M825 557h133l-65 115zM1190 1964l78 -252l-449 -141l-24 80zM891 1544l891 -1544h-502l-74 121h-633l-69 -121h-504z" />
<glyph unicode="&#xc2;" horiz-adv-x="1781" d="M825 557h133l-65 115zM891 1774l274 -224h-176l-98 39l-98 -39h-177zM891 1544l891 -1544h-502l-74 121h-633l-69 -121h-504z" />
<glyph unicode="&#xc3;" horiz-adv-x="1847" d="M825 557h133l-65 115zM1188 1778l65 -133l-16 -15q-45 -43 -85.5 -66.5t-92.5 -23.5q-14 0 -28 2t-29.5 7.5t-24.5 9t-28 11.5t-25 11q-4 3 -14.5 7t-14.5 7q-53 23 -68 27q-20 4 -34 4q-35 0 -56 -16q-12 -7 -43 -43l-2 -2l-22 -25l-70 129q36 52 86 85.5t109 33.5h16 q3 0 8 -1t8 -1q29 -4 109 -41l2 -2q76 -35 106 -41q8 -2 21 -2q64 0 115 67zM891 1544l891 -1544h-502l-74 121h-633l-69 -121h-504z" />
<glyph unicode="&#xc4;" horiz-adv-x="1843" d="M825 557h133l-65 115zM858 1587q0 -39 -27.5 -67.5t-68.5 -28.5q-38 0 -67 29t-29 67t29 67t67 29q41 0 68.5 -28.5t27.5 -67.5zM1108 1587q0 -38 -28 -67t-66 -29t-67 29t-29 67t29 67t67 29t66 -29t28 -67zM893 1544l891 -1544h-502l-74 121h-633l-69 -121h-504z" />
<glyph unicode="&#xc5;" horiz-adv-x="1781" d="M823 557h133l-65 115zM1053 1653q0 -63 -46.5 -109.5t-111.5 -46.5q-63 0 -110.5 46.5t-47.5 109.5q0 65 47 111t111 46q66 0 112 -45.5t46 -111.5zM956 1653q0 26 -18 43.5t-43 17.5t-43 -17.5t-18 -43.5q0 -25 18 -42.5t43 -17.5t43 17.5t18 42.5zM891 1544l891 -1544 h-502l-74 121h-633l-69 -121h-504z" />
<glyph unicode="&#xc6;" horiz-adv-x="1888" d="M838 557h118v191zM1395 483v-49h432v-434h-871v123h-393l-80 -123h-483l874 1401h953v-436h-432v-47h432v-435h-432z" />
<glyph unicode="&#xc7;" horiz-adv-x="985" d="M813 -238v-2q0 -61 -77 -98t-193 -37q-18 0 -64 4l37 76q6 2 12 0h11q43 0 71.5 17t28.5 42q-6 27 -22 39t-46 19q-9 4 -31.5 10.5t-35.5 11.5l69 176l101 -30l-39 -96q79 -11 128.5 -46.5t49.5 -85.5zM823 395l103 -422q-114 -20 -176 -20q-309 0 -531 219 q-219 222 -219 530q0 310 219 529q221 221 531 221q86 0 176 -22l-103 -422q-33 8 -71 8q-126 0 -222 -90t-96 -224t96 -227q97 -91 222 -88q22 0 36 2q5 0 35 6z" />
<glyph unicode="&#xc8;" horiz-adv-x="1097" d="M1034 918v-437h-598v-47h432v-434h-868v1401h868v-436h-432v-47h598zM219 1817l395 -314l-24 -80l-449 142z" />
<glyph unicode="&#xc9;" horiz-adv-x="1097" d="M1034 918v-437h-598v-47h596v-434h-1032v1401h1032v-436h-596v-47h598zM760 1823l78 -252l-449 -141l-24 79z" />
<glyph unicode="&#xca;" horiz-adv-x="1097" d="M1034 918v-437h-598v-47h432v-434h-868v1401h868v-436h-432v-47h598zM459 1645l274 -224h-176l-98 39l-99 -39h-176z" />
<glyph unicode="&#xcb;" horiz-adv-x="1097" d="M1034 918v-437h-598v-47h432v-434h-868v1401h868v-436h-432v-47h598zM422 1526q0 -39 -27.5 -67.5t-68.5 -28.5q-38 0 -67.5 29t-29.5 67t29.5 67t67.5 29q41 0 68.5 -28.5t27.5 -67.5zM672 1526q0 -38 -28 -67t-66 -29t-67.5 29t-29.5 67t29.5 67t67.5 29t66 -29t28 -67 z" />
<glyph unicode="&#xcc;" horiz-adv-x="495" d="M434 1403v-1403h-434v1403h434zM-49 1835l395 -313l-24 -80l-449 141z" />
<glyph unicode="&#xcd;" horiz-adv-x="495" d="M434 1403v-1403h-434v1403h434zM559 1829l78 -252l-449 -141l-24 80z" />
<glyph unicode="&#xce;" horiz-adv-x="495" d="M434 1403v-1403h-434v1403h434zM217 1645l275 -224h-177l-98 39l-98 -39h-176z" />
<glyph unicode="&#xcf;" horiz-adv-x="495" d="M434 1403v-1403h-434v1403h434zM180 1526q0 -39 -27.5 -67.5t-68.5 -28.5q-38 0 -67 29t-29 67t29 67t67 29q41 0 68.5 -28.5t27.5 -67.5zM430 1526q0 -38 -28 -67t-66 -29t-67 29t-29 67t29 67t67 29t66 -29t28 -67z" />
<glyph unicode="&#xd0;" horiz-adv-x="1548" d="M1479 700q0 -288 -207 -495q-205 -205 -494 -205h-571v633h-137v135h137v633h571q287 0 494 -207t207 -494zM967 512q60 60 73 141q4 28 4 43q-3 104 -75 185q-72 84 -191 84h-137v-197h135v-135h-135v-199h43q36 -2 75 0t73.5 7.5t70 23.5t64.5 47z" />
<glyph unicode="&#xd1;" horiz-adv-x="1474" d="M1411 1403v-1573l-975 772v-602h-436v1499l975 -770v674h436zM891 1614l65 -133l-16 -15q-45 -43 -85.5 -66.5t-92.5 -23.5q-14 0 -28 2t-29.5 7.5t-24.5 9t-28 11.5t-25 11q-4 3 -14.5 7.5t-14.5 7.5q-47 21 -68 26q-20 4 -34 4q-35 0 -56 -16q-12 -7 -43 -43l-2 -2 l-22 -25l-70 129q36 52 86 85.5t109 33.5h16q3 0 8 -1t8 -1q29 -4 109 -41l2 -2q76 -35 107 -41q8 -2 20 -2q63 0 115 68z" />
<glyph unicode="&#xd2;" horiz-adv-x="681" />
<glyph unicode="&#xd3;" horiz-adv-x="1564" d="M1499 702q0 -309 -221 -530q-219 -219 -528 -219t-531 219q-219 222 -219 530q0 310 219 529q221 221 531 221t528 -221q221 -218 221 -529zM1065 702q0 131 -94 222q-92 92 -221 92q-132 0 -224 -92t-92 -222q0 -131 92 -223t224 -92q129 0 221 92q94 91 94 223z M1100 1884l78 -252l-449 -141l-24 80z" />
<glyph unicode="&#xd4;" horiz-adv-x="1564" d="M1499 702q0 -309 -221 -530q-219 -219 -528 -219t-531 219q-219 222 -219 530q0 310 219 529q221 221 531 221t528 -221q221 -218 221 -529zM1065 702q0 131 -94 222q-92 92 -221 92q-132 0 -224 -92t-92 -222q0 -131 92 -223t224 -92q129 0 221 92q94 91 94 223z M741 1706l275 -223h-176l-99 39l-98 -39h-176z" />
<glyph unicode="&#xd5;" horiz-adv-x="1564" d="M1499 702q0 -309 -221 -530q-219 -219 -528 -219t-531 219q-219 222 -219 530q0 310 219 529q221 221 531 221t528 -221q221 -218 221 -529zM1065 702q0 131 -94 222q-92 92 -221 92q-132 0 -224 -92t-92 -222q0 -131 92 -223t224 -92q129 0 221 92q94 91 94 223z M1055 1716l65 -133l-16 -14q-45 -43 -85.5 -66.5t-92.5 -23.5q-14 0 -28 2t-29.5 7.5t-24.5 9t-28 11.5t-25 11q-4 3 -14.5 7t-14.5 7q-53 23 -68 27q-20 4 -35 4q-33 0 -55 -17q-12 -7 -43 -43l-2 -2l-22 -24l-70 129q81 118 195 118h16q3 0 8 -1t8 -1q29 -4 109 -41l2 -2 q76 -35 106 -41q8 -2 21 -2q63 0 115 68z" />
<glyph unicode="&#xd6;" horiz-adv-x="1566" d="M1499 702q0 -309 -221 -530q-219 -219 -528 -219t-531 219q-219 222 -219 530q0 310 219 529q221 221 531 221t528 -221q221 -218 221 -529zM1065 702q0 131 -94 222q-92 92 -221 92q-132 0 -224 -92t-92 -222q0 -131 92 -223t224 -92q129 0 221 92q94 91 94 223z M705 1587q0 -39 -28 -67.5t-69 -28.5q-38 0 -67 29t-29 67t29 67t67 29q41 0 69 -28.5t28 -67.5zM954 1587q0 -38 -28 -67t-66 -29t-67 29t-29 67t29 67t67 29t66 -29t28 -67z" />
<glyph unicode="&#xd7;" />
<glyph unicode="&#xd8;" horiz-adv-x="1560" d="M1499 700q0 -310 -221 -528q-219 -219 -528 -219q-138 0 -263.5 46t-224.5 132l-112 -113l-84 84l112 113q-84 101 -131 226t-47 259q0 312 219 531q221 221 531 221q276 0 485 -180l113 112l84 -84l-113 -112q180 -209 180 -488zM1065 700q0 99 -55 179l-437 -439 q74 -53 177 -53q129 0 221 92q94 91 94 221zM489 524l437 439q-82 53 -176 53q-132 0 -224 -92t-92 -224q0 -96 55 -176z" />
<glyph unicode="&#xd9;" horiz-adv-x="1210" d="M1149 1403v-856q0 -236 -168 -404q-169 -166 -406 -166q-116 0 -221 43.5t-184 122.5q-80 80 -125 184t-45 220v856h434v-856q0 -55 41 -96q44 -41 100 -41q57 0 97.5 40t40.5 97v856h436zM328 1823l395 -314l-25 -79l-448 141z" />
<glyph unicode="&#xda;" horiz-adv-x="1210" d="M1149 1403v-856q0 -236 -168 -404q-169 -166 -406 -166q-116 0 -221 43.5t-184 122.5q-80 80 -125 184t-45 220v856h434v-856q0 -55 41 -96q44 -41 100 -41q57 0 97.5 40t40.5 97v856h436zM905 1823l78 -252l-448 -141l-25 79z" />
<glyph unicode="&#xdb;" horiz-adv-x="1210" d="M1149 1403v-856q0 -236 -168 -404q-169 -166 -406 -166q-116 0 -221 43.5t-184 122.5q-80 80 -125 184t-45 220v856h434v-856q0 -55 41 -96q44 -41 100 -41q57 0 97.5 40t40.5 97v856h436zM588 1645l274 -224h-176l-98 39l-99 -39h-176z" />
<glyph unicode="&#xdc;" horiz-adv-x="1212" d="M1149 1403v-856q0 -236 -168 -404q-169 -166 -406 -166q-116 0 -221 43.5t-184 122.5q-80 80 -125 184t-45 220v856h434v-856q0 -55 41 -96q44 -41 100 -41q57 0 97.5 40t40.5 97v856h436zM551 1526q0 -39 -27.5 -67.5t-68.5 -28.5q-38 0 -67.5 29t-29.5 67t29.5 67 t67.5 29q41 0 68.5 -28.5t27.5 -67.5zM801 1526q0 -38 -28 -67t-66 -29t-67.5 29t-29.5 67t29.5 67t67.5 29t66 -29t28 -67z" />
<glyph unicode="&#xdd;" horiz-adv-x="681" />
<glyph unicode="&#xde;" horiz-adv-x="1419" d="M1356 686q0 -248 -176 -424t-426 -176h-254v-86h-437v1401h437v-115h254q250 0 426 -176t176 -424zM920 686q0 69 -48.5 117.5t-117.5 48.5h-254v-332h254q69 0 117.5 49t48.5 117z" />
<glyph unicode="&#xdf;" horiz-adv-x="1339" d="M1257 582q12 -41 15 -86q2 -14 2 -43q0 -188 -119 -322q-69 -78 -163 -120t-197 -42q-49 0 -76 6v426h67q23 0 38.5 14.5t15.5 35.5q0 10 -2 12q-1 4 -2.5 7.5t-5 6.5t-6 4.5t-7.5 4t-6 3.5h-2q-5 5 -6 5q-75 35 -119.5 108.5t-44.5 161.5q0 96 43 156q10 12 10 26 q-1 11 -9.5 19t-16.5 10h-7q-28 0 -28 -31v-588q0 -211 -154 -362q-152 -152 -364 -152v434q35 0 58.5 23.5t23.5 56.5v31v29h-191l148 434h43v47v47q0 95 36.5 180.5t100.5 149.5q68 66 154 100.5t176 34.5q191 0 329 -135q135 -138 135 -330q0 -19 -4 -65q-2 -19 -14 -66 q107 -88 149 -231z" />
<glyph unicode="&#xe0;" horiz-adv-x="1843" d="M612 1958l396 -313l-25 -80l-448 141zM1782 0h-1782l891 1546zM754 436h272l-135 236z" />
<glyph unicode="&#xe1;" horiz-adv-x="1843" d="M1202 1952l78 -252l-449 -141l-24 79zM1782 0h-1782l891 1546zM754 436h272l-135 236z" />
<glyph unicode="&#xe2;" horiz-adv-x="1843" d="M895 1767l274 -223h-176l-98 39l-98 -39h-176zM1782 0h-1782l891 1546zM754 436h272l-135 236z" />
<glyph unicode="&#xe3;" horiz-adv-x="1843" d="M1188 1778l65 -133l-16 -15q-45 -43 -85.5 -66.5t-92.5 -23.5q-14 0 -28 2t-29.5 7.5t-24.5 9t-28 11.5t-25 11q-4 3 -14.5 7t-14.5 7q-53 23 -68 27q-20 4 -34 4q-35 0 -56 -16q-12 -7 -43 -43l-2 -2l-22 -25l-70 129q36 52 86 85.5t109 33.5h16q3 0 8 -1t8 -1 q29 -4 109 -41l2 -2q76 -35 106 -41q8 -2 21 -2q64 0 115 67zM1782 0h-1782l891 1546zM754 436h272l-135 236z" />
<glyph unicode="&#xe4;" horiz-adv-x="1843" d="M858 1587q0 -39 -27.5 -67.5t-68.5 -28.5q-38 0 -67 29t-29 67t29 67t67 29q41 0 68.5 -28.5t27.5 -67.5zM1108 1587q0 -38 -28 -67t-66 -29t-67 29t-29 67t29 67t67 29t66 -29t28 -67zM1782 0h-1782l891 1546zM754 436h272l-135 236z" />
<glyph unicode="&#xe5;" horiz-adv-x="1781" d="M1055 1653q0 -63 -46.5 -109.5t-111.5 -46.5q-63 0 -110.5 46.5t-47.5 109.5q0 65 47 111t111 46q66 0 112 -45.5t46 -111.5zM958 1653q0 26 -18 43.5t-43 17.5t-43 -17.5t-18 -43.5q0 -25 18 -42.5t43 -17.5t43 17.5t18 42.5zM1782 0h-1782l891 1546zM754 436h272 l-135 236z" />
<glyph unicode="&#xe6;" horiz-adv-x="2056" d="M838 557h118v191zM874 1403h953v-436h-434v-47h600v-435h-600v-49h434v-436h-871v123h-393l-80 -123h-483z" />
<glyph unicode="&#xe7;" horiz-adv-x="991" d="M834 -258v-2q0 -61 -77.5 -98t-193.5 -37q-17 0 -63 4l37 76q6 2 12 0h10q43 0 71.5 17t28.5 42q-6 27 -21.5 38.5t-45.5 18.5q-9 4 -32.5 11t-35.5 12l70 176l100 -31l-39 -96q80 -11 129.5 -46t49.5 -85zM823 395l103 -422q-114 -20 -176 -20q-309 0 -531 219 q-219 222 -219 530q0 310 219 529q221 221 531 221q86 0 176 -22l-103 -422q-33 8 -71 8q-126 0 -222 -90t-96 -224t96 -227q97 -91 222 -88q22 0 36 2q5 0 35 6z" />
<glyph unicode="&#xe8;" horiz-adv-x="1097" d="M1034 918v-437h-598v-47h432v-434h-868v1401h868v-436h-432v-47h598zM244 1823l395 -314l-25 -79l-448 141z" />
<glyph unicode="&#xe9;" horiz-adv-x="1097" d="M1034 918v-437h-598v-47h432v-434h-868v1401h868v-436h-432v-47h598zM778 1823l78 -252l-448 -141l-25 79z" />
<glyph unicode="&#xea;" horiz-adv-x="1097" d="M1034 918v-437h-598v-47h432v-434h-868v1401h868v-436h-432v-47h598zM438 1645l275 -224h-176l-99 39l-98 -39h-176z" />
<glyph unicode="&#xeb;" horiz-adv-x="1097" d="M1034 918v-437h-598v-47h432v-434h-868v1401h868v-436h-432v-47h598zM401 1526q0 -39 -27.5 -67.5t-68.5 -28.5q-38 0 -67 29t-29 67t29 67t67 29q41 0 68.5 -28.5t27.5 -67.5zM651 1526q0 -38 -28 -67t-66 -29t-67 29t-29 67t29 67t67 29t66 -29t28 -67z" />
<glyph unicode="&#xec;" horiz-adv-x="495" d="M434 1403v-1403h-434v1403h434zM-37 1847l395 -313l-24 -80l-449 141z" />
<glyph unicode="&#xed;" horiz-adv-x="495" d="M434 1403v-1403h-434v1403h434zM584 1823l78 -252l-449 -141l-25 79z" />
<glyph unicode="&#xee;" horiz-adv-x="495" d="M434 1403v-1403h-434v1403h434zM217 1645l275 -224h-177l-98 39l-98 -39h-176z" />
<glyph unicode="&#xef;" horiz-adv-x="495" d="M434 1403v-1403h-434v1403h434zM180 1526q0 -39 -27.5 -67.5t-68.5 -28.5q-38 0 -67 29t-29 67t29 67t67 29q41 0 68.5 -28.5t27.5 -67.5zM430 1526q0 -38 -28 -67t-66 -29t-67 29t-29 67t29 67t67 29t66 -29t28 -67z" />
<glyph unicode="&#xf0;" horiz-adv-x="1548" d="M1479 700q0 -288 -207 -495q-205 -205 -494 -205h-571v633h-137v135h137v633h571q287 0 494 -207t207 -494zM967 512q60 60 73 141q4 28 4 43q-3 104 -75 185q-72 84 -191 84h-137v-197h135v-135h-135v-199h43q36 -2 75 0t73.5 7.5t70 23.5t64.5 47z" />
<glyph unicode="&#xf1;" horiz-adv-x="1474" d="M1411 1403v-1573l-975 772v-602h-436v1499l975 -770v674h436zM911 1614l66 -133l-16 -15q-45 -43 -86 -66.5t-93 -23.5q-14 0 -28 2t-29.5 7.5t-24.5 9t-28 11.5t-25 11q-4 3 -14.5 7.5t-14.5 7.5q-49 21 -67 26q-20 4 -35 4q-34 0 -55 -16q-12 -7 -43 -43l-2 -2l-23 -25 l-69 129q81 119 194 119h17q3 0 8 -1t8 -1q28 -4 108 -41l3 -2q76 -35 106 -41q8 -2 20 -2q63 0 115 68z" />
<glyph unicode="&#xf2;" horiz-adv-x="1363" d="M1317 782q0 -270 -195 -465q-192 -192 -465 -192q-272 0 -464 192q-193 193 -193 465t193 465t464 193q272 0 465 -193q195 -195 195 -465zM881 782q0 92 -66 158t-158 66t-156.5 -65.5t-64.5 -158.5q0 -92 64.5 -157.5t156.5 -65.5t158 65.5t66 157.5zM408 1866 l395 -314l-25 -79l-448 141z" />
<glyph unicode="&#xf3;" horiz-adv-x="1363" d="M1317 782q0 -270 -195 -465q-192 -192 -465 -192q-272 0 -464 192q-193 193 -193 465t193 465t464 193q272 0 465 -193q195 -195 195 -465zM881 782q0 92 -66 158t-158 66t-156.5 -65.5t-64.5 -158.5q0 -92 64.5 -157.5t156.5 -65.5t158 65.5t66 157.5zM973 1866l78 -252 l-449 -141l-24 79z" />
<glyph unicode="&#xf4;" horiz-adv-x="1368" d="M1317 782q0 -270 -195 -465q-192 -192 -465 -192q-272 0 -464 192q-193 193 -193 465t193 465t464 193q272 0 465 -193q195 -195 195 -465zM881 782q0 92 -66 158t-158 66t-156.5 -65.5t-64.5 -158.5q0 -92 64.5 -157.5t156.5 -65.5t158 65.5t66 157.5zM655 1686 l275 -224h-176l-99 39l-98 -39h-176z" />
<glyph unicode="&#xf5;" horiz-adv-x="1368" d="M1317 782q0 -270 -195 -465q-192 -192 -465 -192q-272 0 -464 192q-193 193 -193 465t193 465t464 193q272 0 465 -193q195 -195 195 -465zM881 782q0 92 -66 158t-158 66t-156.5 -65.5t-64.5 -158.5q0 -92 64.5 -157.5t156.5 -65.5t158 65.5t66 157.5zM948 1696l66 -133 l-17 -15q-45 -43 -85.5 -66.5t-92.5 -23.5q-14 0 -28 2t-29.5 7.5t-24.5 9t-28 11.5t-25 11q-4 3 -14.5 7t-14.5 7q-55 24 -67 27q-20 4 -35 4q-34 0 -55 -16q-12 -7 -43 -43l-2 -2l-23 -25l-70 129q36 52 86 85.5t109 33.5h16q3 0 8.5 -1t8.5 -1q28 -4 108 -41l2 -2 q76 -35 107 -41q8 -2 20 -2q63 0 115 68z" />
<glyph unicode="&#xf6;" horiz-adv-x="1368" d="M1317 782q0 -270 -195 -465q-192 -192 -465 -192q-272 0 -464 192q-193 193 -193 465t193 465t464 193q272 0 465 -193q195 -195 195 -465zM881 782q0 92 -66 158t-158 66t-156.5 -65.5t-64.5 -158.5q0 -92 64.5 -157.5t156.5 -65.5t158 65.5t66 157.5zM618 1546 q0 -39 -27.5 -67.5t-68.5 -28.5q-38 0 -67 29t-29 67t29 67t67 29q41 0 68.5 -28.5t27.5 -67.5zM868 1546q0 -38 -28 -67t-66 -29t-67 29t-29 67t29 67t67 29t66 -29t28 -67z" />
<glyph unicode="&#xf7;" />
<glyph unicode="&#xf8;" horiz-adv-x="1380" d="M1317 782q0 -270 -195 -465q-192 -192 -465 -192q-246 0 -430 160l-86 -86l-65 65l86 86q-162 190 -162 432q0 272 193 465t464 193q243 0 433 -162l86 88l65 -66l-86 -88q77 -88 119.5 -198.5t42.5 -231.5zM881 782q0 68 -35 121l-309 -307q52 -37 120 -37 q92 0 158 65.5t66 157.5zM471 662l309 307q-56 37 -123 37q-92 0 -156.5 -65.5t-64.5 -158.5q0 -67 35 -120z" />
<glyph unicode="&#xf9;" horiz-adv-x="1210" d="M1149 1403v-709q0 -237 -168 -405t-406 -168q-237 0 -405 168q-170 170 -170 405v709h434v-709q0 -64 43 -99.5t101 -35.5q56 0 95.5 35t39.5 100v709h436zM305 1823l395 -314l-24 -79l-449 141z" />
<glyph unicode="&#xfa;" horiz-adv-x="1212" d="M1149 1403v-709q0 -237 -168 -405t-406 -168q-237 0 -405 168q-170 170 -170 405v709h434v-709q0 -64 43 -99.5t101 -35.5q56 0 95.5 35t39.5 100v709h436zM907 1823l78 -252l-448 -141l-25 79z" />
<glyph unicode="&#xfb;" horiz-adv-x="1210" d="M1149 1403v-709q0 -237 -168 -405t-406 -168q-237 0 -405 168q-170 170 -170 405v709h434v-709q0 -64 43 -99.5t101 -35.5q56 0 95.5 35t39.5 100v709h436zM575 1645l275 -224h-176l-99 39l-98 -39h-176z" />
<glyph unicode="&#xfc;" horiz-adv-x="1210" d="M1149 1403v-709q0 -237 -168 -405t-406 -168q-237 0 -405 168q-170 170 -170 405v709h434v-709q0 -64 43 -99.5t101 -35.5q56 0 95.5 35t39.5 100v709h436zM559 1526q0 -39 -27.5 -67.5t-68.5 -28.5q-38 0 -67 29t-29 67t29 67t67 29q41 0 68.5 -28.5t27.5 -67.5z M809 1526q0 -38 -28 -67t-66 -29t-67.5 29t-29.5 67t29.5 67t67.5 29t66 -29t28 -67z" />
<glyph unicode="&#xfd;" horiz-adv-x="681" />
<glyph unicode="&#xfe;" horiz-adv-x="1419" d="M1356 686q0 -248 -176 -424t-426 -176h-254v-86h-437v1401h437v-115h254q250 0 426 -176t176 -424zM920 686q0 69 -48.5 117.5t-117.5 48.5h-254v-332h254q69 0 117.5 49t48.5 117z" />
<glyph unicode="&#xff;" horiz-adv-x="1499" d="M936 1403h502l-500 -868v-535h-434v535l-500 868h502l215 -373zM715 1505q0 -39 -28 -67.5t-69 -28.5q-38 0 -67 29t-29 67t29 67.5t67 29.5q41 0 69 -29t28 -68zM965 1505q0 -38 -28.5 -67t-66.5 -29t-67 29t-29 67t29 67.5t67 29.5t66.5 -29.5t28.5 -67.5z" />
<glyph unicode="&#x152;" horiz-adv-x="2072" d="M2011 918v-435h-502v-49h502v-434h-938v25q-164 -72 -323 -72q-309 0 -531 219q-219 219 -219 528q0 312 219 531q221 221 531 221q169 0 323 -74v23h938v-436h-502v-47h502zM1065 700q0 132 -92 224t-223 92q-129 0 -224 -92q-92 -92 -92 -224q0 -129 92 -221 q95 -92 224 -92q131 0 223 92t92 221z" />
<glyph unicode="&#x153;" horiz-adv-x="2072" d="M2011 918v-435h-502v-49h336v-434h-772v25q-164 -72 -323 -72q-309 0 -531 219q-219 219 -219 528q0 312 219 531q221 221 531 221q169 0 323 -74v23h772v-436h-336v-47h502zM1065 700q0 132 -92 224t-223 92q-129 0 -224 -92q-92 -92 -92 -224q0 -129 92 -221 q95 -92 224 -92q131 0 223 92t92 221z" />
<glyph unicode="&#x178;" horiz-adv-x="1499" d="M936 1403h502l-500 -868v-535h-434v535l-500 868h502l215 -373zM694 1505q0 -39 -27.5 -67.5t-68.5 -28.5q-38 0 -67 29t-29 67t29 67.5t67 29.5q40 0 68 -29t28 -68zM944 1505q0 -38 -28 -67t-66 -29t-67 29t-29 67t29 67.5t67 29.5t66 -29t28 -68z" />
<glyph unicode="&#x2c6;" horiz-adv-x="602" d="M594 1614l65 -133l-16 -15q-45 -43 -85.5 -66.5t-92.5 -23.5q-14 0 -28 2t-29.5 7.5t-24.5 9t-28 11.5t-25 11q-4 3 -14.5 7.5t-14.5 7.5q-48 21 -68 26q-20 4 -34 4q-35 0 -56 -16q-12 -7 -43 -43l-2 -2l-22 -25l-70 129q36 52 86 85.5t109 33.5h16q3 0 8 -1t8 -1 q29 -4 109 -41l2 -2q76 -35 107 -41q8 -2 20 -2q63 0 115 68z" />
<glyph unicode="&#x2dc;" horiz-adv-x="602" d="M274 1645l275 -224h-176l-99 39l-98 -39h-176z" />
<glyph unicode="&#x2000;" horiz-adv-x="982" />
<glyph unicode="&#x2001;" horiz-adv-x="1964" />
<glyph unicode="&#x2002;" horiz-adv-x="982" />
<glyph unicode="&#x2003;" horiz-adv-x="1964" />
<glyph unicode="&#x2004;" horiz-adv-x="654" />
<glyph unicode="&#x2005;" horiz-adv-x="491" />
<glyph unicode="&#x2006;" horiz-adv-x="327" />
<glyph unicode="&#x2007;" horiz-adv-x="327" />
<glyph unicode="&#x2008;" horiz-adv-x="245" />
<glyph unicode="&#x2009;" horiz-adv-x="392" />
<glyph unicode="&#x200a;" horiz-adv-x="109" />
<glyph unicode="&#x2010;" horiz-adv-x="495" d="M434 870v-297h-434v297h434z" />
<glyph unicode="&#x2011;" horiz-adv-x="495" d="M434 870v-297h-434v297h434z" />
<glyph unicode="&#x2012;" horiz-adv-x="495" d="M434 870v-297h-434v297h434z" />
<glyph unicode="&#x2013;" horiz-adv-x="958" d="M913 870v-297h-868v297h868z" />
<glyph unicode="&#x2014;" horiz-adv-x="1798" d="M1737 870v-297h-1737v297h1737z" />
<glyph unicode="&#x2018;" horiz-adv-x="425" d="M174 1507l213 -75l-174 -316l-213 78z" />
<glyph unicode="&#x2019;" horiz-adv-x="425" d="M174 1507l213 -75l-174 -316l-213 78z" />
<glyph unicode="&#x201a;" horiz-adv-x="417" d="M174 176l213 -76l-174 -315l-213 78z" />
<glyph unicode="&#x201c;" horiz-adv-x="712" d="M174 1507l213 -75l-174 -316l-213 78zM481 1507l213 -75l-174 -316l-213 78z" />
<glyph unicode="&#x201d;" horiz-adv-x="712" d="M174 1507l213 -75l-174 -316l-213 78zM481 1507l213 -75l-174 -316l-213 78z" />
<glyph unicode="&#x201e;" horiz-adv-x="712" d="M174 176l213 -76l-174 -315l-213 78zM481 176l213 -76l-174 -315l-213 78z" />
<glyph unicode="&#x2022;" horiz-adv-x="956" d="M893 684q0 -184 -131 -315t-316 -131q-184 0 -315 131t-131 315t131 315t315 131q185 0 316 -131t131 -315z" />
<glyph unicode="&#x2026;" horiz-adv-x="1492" d="M446 199q0 -92 -65.5 -157t-157.5 -65t-157.5 65t-65.5 157t65.5 157.5t157.5 65.5t157.5 -65.5t65.5 -157.5zM938 199q0 -92 -65.5 -157t-157.5 -65t-157.5 65t-65.5 157t65.5 157.5t157.5 65.5t157.5 -65.5t65.5 -157.5zM1430 199q0 -92 -66 -157t-158 -65t-157.5 65 t-65.5 157t65.5 157.5t157.5 65.5t158 -65.5t66 -157.5z" />
<glyph unicode="&#x202f;" horiz-adv-x="392" />
<glyph unicode="&#x2039;" horiz-adv-x="417" d="M354 492v-209l-354 362l354 348v-207l-147 -145z" />
<glyph unicode="&#x203a;" horiz-adv-x="417" d="M0 993l356 -348l-356 -358v205l147 149l-147 145v207z" />
<glyph unicode="&#x205f;" horiz-adv-x="491" />
<glyph unicode="&#x20ac;" horiz-adv-x="1036" d="M975 1374l-84 -350q-33 8 -76 8q-98 0 -182.5 -56t-120.5 -147h414l-56 -96h-381q-1 -18 3 -74h335l-55 -98h-250q41 -82 121 -131t172 -49q8 0 62 6l-89 -367q-234 9 -417 160q-180 149 -230 381h-143l55 98h74q-2 25 -2 74h-127l55 96h84q47 252 240 408 q200 159 438 156q91 0 160 -19z" />
<glyph unicode="&#x2122;" />
<glyph unicode="&#x25fc;" horiz-adv-x="1402" d="M0 1403h1403v-1403h-1403v1403z" />
</font>
</defs>
</svg>
